<?xml version="1.0" encoding="utf-8"?>
<svg viewBox="0 0 500 500" xmlns="http://www.w3.org/2000/svg">
  <defs>
    <linearGradient id="f9d7795c-47ab-4264-adf8-fc9a284cd87a" x1="491.14" y1="640.96" x2="698.09" y2="640.96" gradientUnits="userSpaceOnUse" gradientTransform="matrix(0.766456, 0, 0, 0.707624, -223.623888, -109.983997)">
      <stop offset="0" stop-color="gray" stop-opacity="0.25"/>
      <stop offset="0.54" stop-color="gray" stop-opacity="0.12"/>
      <stop offset="1" stop-color="gray" stop-opacity="0.1"/>
    </linearGradient>
  </defs>
  <title>personalization</title>
  <path d="M 120.913 77.197 C 120.913 77.197 142.159 51.637 153.748 53.618 C 153.748 53.618 140.871 76.404 120.913 79.8 L 120.913 77.197 Z" fill="#38d39f" style=""/>
  <path d="M 131.62 45.693 C 131.62 45.693 150.406 26.091 160.546 26.141 C 160.546 26.141 145.723 52.323 130.854 52.083 L 131.62 45.693 Z" fill="#38d39f" style=""/>
  <rect x="342.043" y="116.455" width="6.791" height="51.671" rx="2.29" ry="2.29" fill="#3a3768" style=""/>
  <rect x="116.376" y="75.973" width="3.809" height="17.011" rx="2.29" ry="2.29" fill="#3a3768" style=""/>
  <rect x="116.238" y="107.122" width="4.292" height="29.607" rx="2.29" ry="2.29" fill="#3a3768" style=""/>
  <rect x="116.307" y="147.088" width="4.086" height="29.861" rx="2.29" ry="2.29" fill="#3a3768" style=""/>
  <rect x="118.53" y="19.759" width="227.177" height="426.265" rx="38.99" ry="38.99" fill="#3a3768" style=""/>
  <path d="M 313.661 30.832 L 287.602 30.832 L 287.602 33.727 C 287.602 41.304 280.947 47.444 272.74 47.441 L 189.863 47.441 C 181.657 47.444 175.002 41.304 175.002 33.727 L 175.002 30.832 L 150.605 30.832 C 140.641 30.832 132.563 38.291 132.563 47.49 L 132.563 418.264 C 132.563 427.463 140.641 434.921 150.605 434.921 L 313.661 434.921 C 323.625 434.921 331.703 427.463 331.703 418.264 L 331.703 47.519 C 331.721 38.308 323.638 30.832 313.661 30.832 Z" style="fill: rgb(56, 64, 211);"/>
  <rect x="210.205" y="32.489" width="31.724" height="5.943" rx="3.87" ry="3.87" fill="#e6e8ec" style=""/>
  <circle cx="523.21" cy="175.36" r="4.77" fill="#e6e8ec" transform="matrix(0.766456, 0, 0, 0.707624, -150.634338, -88.627907)" style=""/>
  <rect x="152.069" y="72.109" width="158.618" height="310.817" opacity="0.1" style=""/>
  <path d="M 306.571 469.007 C 306.571 469.007 302.832 460.969 301.16 457.26 C 300.217 455.138 298.623 454.784 297.404 454.833 L 297.473 454.126 L 297.773 450.778 L 297.834 450.071 C 300.724 449.512 303.199 449.073 303.199 449.073 L 301.398 363.225 C 301.398 363.225 300.632 362.319 298.777 356.856 C 297.857 354.132 293.412 350.785 289.257 348.117 C 288.606 347.7 287.969 347.303 287.341 346.921 C 288.854 345.751 290.444 344.669 292.101 343.68 C 294.461 342.414 295.244 335.189 295.244 335.189 L 294.852 335.896 C 295.244 335.189 294.852 316.741 294.852 316.741 L 293.473 297.593 C 293.473 297.593 292.492 274.828 284.827 268.863 C 277.162 262.898 267.482 260.81 267.482 260.81 L 262.117 259.537 L 252.23 257.195 C 251.954 256.777 251.685 256.338 251.464 255.878 C 251.364 255.702 251.272 255.518 251.18 255.333 C 257.309 251.327 260.953 244.824 260.953 237.89 C 260.954 236.743 260.854 235.597 260.653 234.465 C 260.653 234.253 260.569 234.034 260.523 233.822 C 261.335 233.308 262.103 232.738 262.823 232.117 C 263.993 231.255 264.95 230.172 265.627 228.939 C 265.734 228.698 265.82 228.449 265.888 228.196 C 265.888 228.125 265.888 228.055 265.934 227.977 C 265.98 227.899 266.003 227.602 266.026 227.41 C 266.026 227.34 266.026 227.269 266.026 227.198 C 266.026 226.993 266.026 226.781 266.026 226.575 C 266.026 226.526 266.026 226.476 266.026 226.42 C 266.026 226.186 265.988 225.953 265.949 225.713 C 265.953 225.699 265.953 225.683 265.949 225.669 C 265.809 224.848 265.578 224.042 265.26 223.264 C 264.493 221.439 263.497 219.726 263.136 217.78 C 262.692 215.48 263.205 212.968 262.017 210.902 C 261.019 209.32 259.307 208.232 257.349 207.936 C 255.404 207.659 253.414 207.87 251.585 208.545 C 250.692 208.937 249.729 209.177 248.743 209.253 C 248.025 209.214 247.322 209.056 246.665 208.786 C 244.389 207.962 242.229 206.891 240.227 205.594 C 238.786 204.545 237.247 203.617 235.629 202.821 C 233.982 202.027 232.036 201.954 230.324 202.622 C 227.488 203.953 226.952 207.66 224.316 209.295 C 222.499 210.427 220.13 210.314 217.939 210.385 C 215.746 210.455 213.263 210.958 212.183 212.713 C 211.416 213.931 211.599 215.38 211.745 216.803 L 211.791 217.284 C 211.791 217.454 211.791 217.632 211.837 217.801 C 211.958 219.621 211.664 221.443 210.971 223.15 C 209.913 225.741 207.905 228.295 207.974 230.935 C 207.981 231.354 208.04 231.773 208.151 232.179 C 208.211 232.384 208.282 232.585 208.366 232.782 C 208.788 233.656 209.261 234.508 209.783 235.336 L 209.852 235.449 C 209.906 235.549 209.959 235.647 210.006 235.746 C 210.052 235.846 210.144 236.016 210.197 236.15 C 210.251 236.284 210.259 236.284 210.282 236.348 C 210.305 236.411 210.381 236.609 210.42 236.744 C 210.546 237.143 210.6 237.56 210.581 237.975 C 210.491 238.511 210.442 239.053 210.435 239.596 C 210.44 240.156 210.868 240.636 211.462 240.749 C 211.779 240.742 212.086 240.654 212.351 240.494 C 213.039 240.133 213.692 239.719 214.306 239.256 C 214.306 239.482 214.306 239.709 214.352 239.964 C 214.886 245.029 217.355 249.753 221.319 253.288 C 221.319 253.508 221.319 253.734 221.265 253.996 C 221.211 254.258 221.226 254.506 221.211 254.767 L 212.627 257.258 C 212.627 257.258 212.673 257.4 212.765 257.64 L 211.86 257.973 C 207.407 259.636 202.448 261.702 199.674 263.577 C 198.448 264.398 197.329 265.07 196.325 265.629 C 192.679 267.689 189.883 270.815 188.384 274.509 L 188.27 274.779 C 187.502 276.399 183.747 287.424 183.747 287.424 C 183.747 287.424 180.995 293.566 180.597 297.543 C 180.597 297.543 176.075 310.726 177.255 319.402 C 177.255 319.402 173.714 331.87 175.094 333.851 C 175.094 333.851 173.683 339.215 179.877 344.614 C 179.424 344.869 178.934 345.145 178.42 345.449 C 173.622 348.237 166.701 352.759 165.521 356.248 C 163.689 361.675 162.9 362.616 162.9 362.616 L 161.045 448.331 C 161.045 448.331 163.52 448.77 166.41 449.321 L 166.471 450.029 L 166.77 453.369 L 166.839 454.076 C 165.62 454.026 164.026 454.416 163.084 456.511 C 161.404 460.211 157.718 468.244 157.718 468.244 C 157.718 468.244 149.463 475.319 154.469 481.886 C 154.689 482.186 154.946 482.462 155.235 482.707 C 158.829 485.722 166.494 483.789 171.943 481.823 C 174.712 480.732 177.1 478.953 178.842 476.685 C 179.286 476.148 179.952 475.807 180.681 475.744 C 181.93 475.558 183.109 475.083 184.107 474.364 C 185.327 473.542 186.031 472.219 185.993 470.825 C 185.988 470.791 185.988 470.755 185.993 470.72 L 185.509 460.65 C 185.509 460.65 184.919 453.617 183.042 454.07 L 182.559 454.176 L 182.429 453.467 L 182.176 452.102 L 182.045 451.395 L 183.088 451.395 C 183.088 451.395 183.349 443.441 186.498 437.185 C 189.649 430.93 191.718 380.398 191.718 380.398 C 191.718 380.398 230.708 380.986 232.011 377.611 C 232.777 377.611 233.613 377.611 234.41 377.561 C 235.721 380.937 272.518 381.099 272.518 381.099 C 272.518 381.099 274.61 431.687 277.752 437.95 C 278.416 439.292 278.966 440.678 279.401 442.096 C 280.39 445.378 280.983 448.75 281.171 452.152 L 282.214 452.152 L 282.076 452.86 L 281.823 454.218 L 281.692 454.926 L 281.194 454.819 C 279.332 454.374 278.741 461.407 278.741 461.407 L 278.243 471.54 C 278.165 472.928 278.85 474.259 280.067 475.079 C 281.082 475.814 282.281 476.301 283.555 476.494 C 284.285 476.548 284.954 476.888 285.394 477.427 C 287.137 479.695 289.525 481.472 292.293 482.565 C 298.178 484.688 306.64 486.762 309.783 482.636 C 314.827 476.055 306.571 469.007 306.571 469.007 Z M 207.469 342.809 L 207.561 342.809 L 207.469 342.809 Z M 269.054 313.882 C 269.054 313.882 270.042 317.314 271.805 319.119 C 273.568 320.923 272.694 332.131 272.694 332.131 C 272 332.172 271.313 332.274 270.64 332.436 C 269.284 324.984 268.034 316.713 269.054 313.882 Z" fill="url(#f9d7795c-47ab-4264-adf8-fc9a284cd87a)" style=""/>
  <polygon points="184.276 455.13 168.862 456.546 168.433 451.784 168.134 448.508 167.713 443.717 182.275 444.424 183.433 450.574 183.679 451.912 183.685 451.912 184.276 455.13" fill="#8e6f7f" style=""/>
  <polygon points="296.523 444.432 296.102 449.215 295.81 452.491 295.373 457.254 279.952 455.839 280.565 452.619 280.803 451.289 281.961 445.139 296.523 444.432" fill="#8e6f7f" style=""/>
  <path d="M 280.19 375.516 L 234.356 377.505 C 232.271 377.599 230.187 377.599 228.102 377.505 L 184.314 375.523 L 184.314 343.496 L 280.19 343.496 L 280.19 375.516 Z" fill="#5f5570" style=""/>
  <path d="M 280.19 375.516 L 234.356 377.505 C 232.271 377.599 230.187 377.599 228.102 377.505 L 184.314 375.523 L 184.314 343.496 L 280.19 343.496 L 280.19 375.516 Z" opacity="0.1" style=""/>
  <path d="M 221.495 257.209 C 221.495 257.209 206.227 261.942 200.478 265.835 C 199.283 266.641 198.179 267.306 197.214 267.851 C 193.664 269.872 190.947 272.931 189.495 276.541 C 189.457 276.639 189.418 276.725 189.38 276.803 C 188.614 278.394 184.973 289.186 184.973 289.186 C 184.973 289.186 182.291 295.201 181.907 299.093 C 181.524 302.985 203.752 313.422 203.752 313.422 C 203.752 313.422 193.022 335.005 197.811 340.489 C 202.602 345.973 272.541 348.626 271.008 340.489 C 269.475 332.351 266.792 318.907 268.134 315.192 L 291.894 299.27 C 291.894 299.27 290.935 276.98 283.463 271.141 C 275.99 265.304 266.6 263.18 266.6 263.18 L 251.724 259.643 C 251.724 259.643 246.481 271.672 240.733 273.265 C 234.984 274.857 222.392 267.504 221.495 257.209 Z" fill="#eaeaf2" style=""/>
  <path d="M 242.94 277.468 C 242.94 277.468 236.456 282.464 233.054 277.468 C 233.054 277.468 229.987 285.916 233.054 288.747 L 232.939 289.32 L 232.394 291.839 L 225.297 346.327 L 231.136 355.632 L 241.768 343.32 L 240.909 292.37 L 240.526 289.448 L 240.433 288.741 L 242.251 288.741 C 242.251 288.741 247.071 281.049 242.94 277.468 Z" opacity="0.1" style=""/>
  <path d="M 244.473 277.468 C 244.473 277.468 237.989 282.464 234.586 277.468 C 234.586 277.468 231.52 285.916 234.586 288.747 L 234.471 289.32 L 233.926 291.839 L 226.829 346.327 L 232.67 355.632 L 243.3 343.32 L 242.442 292.37 L 242.059 289.448 L 241.967 288.741 L 243.784 288.741 C 243.784 288.741 248.605 281.049 244.473 277.468 Z" opacity="0.1" style=""/>
  <polygon points="242.534 342.619 231.904 354.91 226.048 345.654 233.152 291.139 233.697 288.619 233.82 288.04 234.778 285.747 241.201 288.04 241.293 288.747 241.676 291.67 242.534 342.619" fill="#bc8487" style=""/>
  <path d="M 183.433 450.567 C 180.126 450.547 176.827 450.237 173.583 449.64 C 171.982 449.271 169.974 448.861 168.142 448.5 L 167.713 443.709 L 182.275 444.418 L 183.433 450.567 Z" opacity="0.1" style=""/>
  <path d="M 232.019 377.569 C 230.746 380.873 192.745 380.292 192.745 380.292 C 192.745 380.292 190.706 429.826 187.64 435.961 C 184.574 442.096 184.314 449.873 184.314 449.873 C 184.314 449.873 177.677 449.873 173.583 448.932 C 169.491 447.991 162.854 446.809 162.854 446.809 L 164.647 362.779 C 164.647 362.779 165.413 361.894 167.199 356.58 C 168.349 353.162 175.094 348.732 179.762 345.966 C 182.367 344.452 184.314 343.46 184.314 343.46 L 206.985 344.31 L 220.981 344.833 C 220.981 344.833 233.298 374.263 232.019 377.569 Z" fill="#5f5570" style=""/>
  <path d="M 184.284 455.124 L 168.862 456.539 L 168.426 451.776 C 169.004 451.792 169.572 451.906 170.104 452.116 C 172.917 453.984 180.957 452.499 183.679 451.904 L 184.284 455.124 Z" opacity="0.1" style=""/>
  <path d="M 187.196 468.887 C 187.232 470.25 186.542 471.543 185.349 472.347 C 184.378 473.05 183.232 473.514 182.015 473.698 C 181.304 473.756 180.654 474.09 180.229 474.618 C 178.526 476.837 176.192 478.578 173.484 479.65 C 168.172 481.575 160.699 483.464 157.197 480.513 C 156.907 480.275 156.65 480.007 156.431 479.713 C 151.548 473.26 159.596 466.354 159.596 466.354 C 159.596 466.354 163.23 458.484 164.862 454.862 C 165.608 452.87 168.065 451.919 170.127 452.824 C 173.193 454.862 182.49 452.908 184.307 452.477 C 186.123 452.046 186.705 458.923 186.705 458.923 L 187.196 468.781 C 187.192 468.817 187.192 468.851 187.196 468.887 Z" fill="#bc8487" style=""/>
  <path d="M 296.531 444.424 L 296.102 449.207 C 294.27 449.569 292.27 449.979 290.653 450.347 C 287.411 450.946 284.116 451.259 280.811 451.281 L 281.968 445.132 L 296.531 444.424 Z" opacity="0.1" style=""/>
  <path d="M 301.398 447.516 C 301.398 447.516 294.76 448.698 290.668 449.64 C 286.575 450.581 279.937 450.581 279.937 450.581 C 279.937 450.581 279.684 442.797 276.619 436.668 C 273.553 430.541 271.506 381 271.506 381 C 271.506 381 235.652 380.809 234.371 377.505 C 233.091 374.2 249.999 345.662 249.999 345.662 L 260.308 345.166 L 279.937 344.204 C 279.937 344.204 283.769 346.129 287.786 348.726 C 291.802 351.322 296.163 354.62 297.06 357.288 C 298.846 362.602 299.612 363.487 299.612 363.487 L 301.398 447.516 Z" fill="#5f5570" style=""/>
  <path d="M 295.81 452.485 L 295.382 457.246 L 279.952 455.831 L 280.565 452.611 C 283.286 453.213 291.296 454.693 294.132 452.824 C 294.664 452.614 295.232 452.499 295.81 452.485 Z" opacity="0.1" style=""/>
  <path d="M 294.132 453.531 C 296.196 452.622 298.659 453.573 299.405 455.569 C 301.03 459.193 304.67 467.068 304.67 467.068 C 304.67 467.068 312.719 473.968 307.836 480.421 C 304.77 484.468 296.523 482.438 290.79 480.358 C 288.081 479.29 285.746 477.549 284.046 475.327 C 283.617 474.797 282.965 474.462 282.252 474.407 C 281.006 474.206 279.836 473.72 278.849 472.991 C 277.671 472.186 277.006 470.89 277.078 469.538 L 277.561 459.632 C 277.561 459.632 278.136 452.746 279.952 453.178 C 281.769 453.609 291.066 455.569 294.132 453.531 Z" fill="#bc8487" style=""/>
  <path d="M 254.513 263.18 L 239.039 278.324 L 238.609 278.749 L 238.05 278.444 C 234.815 276.675 218.636 267.66 220.023 264.95 C 220.79 263.407 221.242 260.195 221.48 257.428 C 221.48 257.095 221.526 256.77 221.556 256.452 C 221.71 254.265 221.748 252.567 221.748 252.567 C 221.748 252.567 250.873 247.968 249.724 252.567 C 249.256 254.428 249.953 256.522 250.942 258.355 C 251.233 258.886 251.556 259.388 251.869 259.862 C 252.643 261.038 253.528 262.149 254.513 263.18 Z" fill="#ffc4d0" style=""/>
  <path d="M 250.942 258.355 C 241.967 264.462 229.519 263.655 221.556 256.452 C 221.71 254.265 221.748 252.567 221.748 252.567 C 221.748 252.567 250.873 247.968 249.724 252.567 C 249.279 254.442 249.953 256.522 250.942 258.355 Z" opacity="0.1" style=""/>
  <path d="M 260.193 240.742 C 260.443 256.903 241.65 267.252 226.366 259.371 C 219.743 255.957 215.401 249.718 214.788 242.738 C 214.727 242.077 214.696 241.412 214.696 240.742 C 214.375 224.583 233.121 214.162 248.441 221.985 C 255.811 225.749 260.325 232.967 260.17 240.742 L 260.193 240.742 Z" fill="#ffc4d0" style=""/>
  <path d="M 259.91 237.388 C 258.713 238.288 257.159 238.677 255.633 238.457 C 252.122 237.749 250.919 232.796 247.332 232.456 C 243.745 232.117 241.362 236.701 237.728 236.609 C 236.195 236.575 234.815 235.647 233.406 235.004 C 230.938 233.878 226.875 233.191 224.208 234.041 C 220.199 235.307 218.843 238.733 216.284 241.456 C 215.846 241.92 215.366 242.349 214.85 242.738 C 214.788 242.077 214.758 241.412 214.758 240.742 C 214.598 224.581 233.45 214.321 248.689 222.274 C 254.765 225.446 258.926 231.017 259.979 237.388 L 259.91 237.388 Z" opacity="0.1" style=""/>
  <path d="M 233.406 234.303 C 234.815 234.94 236.165 235.874 237.728 235.909 C 241.353 235.994 243.722 231.387 247.324 231.748 C 250.927 232.109 252.115 237.02 255.64 237.749 C 258.009 238.244 260.239 236.609 262.009 235.088 C 263.153 234.247 264.087 233.187 264.746 231.982 C 265.513 230.227 265.114 228.203 264.401 226.42 C 263.689 224.637 262.685 222.924 262.332 221.049 C 261.902 218.799 262.401 216.336 261.243 214.312 C 260.274 212.764 258.602 211.699 256.69 211.411 C 254.795 211.14 252.855 211.342 251.072 211.998 C 250.205 212.388 249.266 212.628 248.305 212.707 C 247.604 212.667 246.916 212.511 246.274 212.246 C 244.057 211.439 241.953 210.392 240.005 209.126 C 238.608 208.096 237.113 207.187 235.537 206.408 C 233.933 205.631 232.036 205.561 230.37 206.217 C 227.611 207.519 227.082 211.17 224.515 212.749 C 222.745 213.853 220.437 213.739 218.306 213.817 C 216.176 213.895 213.707 214.369 212.696 216.089 C 211.791 217.568 212.244 219.386 212.359 221.077 C 212.474 222.858 212.184 224.642 211.508 226.314 C 210.32 229.243 207.905 232.131 208.765 235.159 C 209.324 237.148 211.255 238.797 211.14 240.82 C 211.049 241.342 211.001 241.869 210.994 242.398 C 211 242.946 211.418 243.418 211.998 243.53 C 212.306 243.527 212.604 243.438 212.857 243.275 C 214.131 242.618 215.274 241.763 216.238 240.749 C 218.828 238.018 220.169 234.6 224.178 233.333 C 226.883 232.505 230.938 233.171 233.406 234.303 Z" fill="#8e6f7f" style=""/>
  <path d="M 259.78 357.825 L 255.64 358.866 L 246.082 361.293 C 243.87 362.814 241.381 363.957 238.732 364.669 C 232.885 366.034 229.106 363.062 225.963 358.462 C 224.698 356.622 225.335 355.151 226.99 353.997 C 230.976 351.216 240.832 350.311 243.853 350.679 C 245.835 350.828 247.829 350.541 249.67 349.844 C 250.977 349.405 252.237 348.855 253.434 348.201 L 259.78 357.825 Z" fill="#ffc4d0" style=""/>
  <path d="M 259.78 357.825 L 255.64 358.866 C 254.452 355.561 252.497 351.415 249.701 349.822 C 251.007 349.383 252.267 348.834 253.463 348.181 L 259.78 357.825 Z" opacity="0.1" style=""/>
  <path d="M 287.771 348.726 C 286.054 350.006 284.597 351.174 284.597 351.174 C 284.597 351.174 264.669 356.941 260.837 364.194 C 260.837 364.194 257.771 350.042 251.256 349.864 C 251.256 349.864 258.269 347.325 260.293 345.152 L 279.937 344.204 C 279.937 344.204 283.769 346.129 287.771 348.726 Z" opacity="0.1" style=""/>
  <path d="M 287.471 293.255 L 291.878 299.27 L 293.22 318.021 C 293.22 318.021 293.603 336.066 293.22 336.774 L 293.603 336.066 C 293.603 336.066 292.836 343.142 290.538 344.38 C 288.238 345.62 283.065 349.758 283.065 349.758 C 283.065 349.758 263.136 355.526 259.304 362.779 C 259.304 362.779 256.239 348.626 249.724 348.449 C 249.724 348.449 259.496 344.911 259.304 342.612 C 259.304 342.612 266.777 336.419 267.352 334.828 C 267.927 333.235 271.659 333.059 271.659 333.059 C 271.659 333.059 272.525 322.091 270.801 320.321 C 269.077 318.552 268.119 315.192 268.119 315.192 L 287.471 293.255 Z" fill="#eaeaf2" style=""/>
  <path d="M 238.732 364.647 C 232.885 366.013 229.106 363.04 225.963 358.441 C 224.698 356.602 225.335 355.13 226.99 353.976 L 227.588 354.196 C 227.588 354.196 238.127 358.413 238.732 364.647 Z" opacity="0.1" style=""/>
  <path d="M 236.311 370.301 C 229.412 379.146 216.574 366.847 215.616 364.371 C 215.272 363.473 213.961 362.673 212.451 362.029 C 210.535 361.256 208.546 360.647 206.511 360.211 L 217.916 351.633 L 220.1 352.441 L 226.822 354.925 C 226.822 354.925 243.209 361.455 236.311 370.301 Z" fill="#ffc4d0" style=""/>
  <path d="M 220.1 352.441 C 213.815 355.2 212.474 359.171 212.436 362.029 C 210.52 361.256 208.531 360.647 206.495 360.211 L 217.9 351.633 L 220.1 352.441 Z" opacity="0.1" style=""/>
  <path d="M 210.059 367.733 C 210.059 367.733 191.665 354.288 182.85 348.449 C 181.748 347.724 180.721 346.904 179.785 346.001 C 182.39 344.486 184.337 343.496 184.337 343.496 L 207.008 344.345 C 207.615 345.315 207.974 345.973 207.974 345.973 L 220.238 353.403 C 205.461 357.825 210.059 367.733 210.059 367.733 Z" opacity="0.1" style=""/>
  <path d="M 185.532 297.147 L 181.892 299.093 C 181.892 299.093 177.485 312.006 178.635 320.498 C 178.635 320.498 175.186 332.705 176.527 334.65 C 176.527 334.65 174.802 341.196 183.617 347.034 C 192.431 352.872 210.826 366.317 210.826 366.317 C 210.826 366.317 206.227 356.41 220.981 351.988 L 208.718 344.558 C 208.718 344.558 204.602 337.014 200.67 335.359 C 200.67 335.359 197.605 332.528 199.52 330.582 C 201.436 328.636 202.97 326.513 202.97 324.567 C 202.97 322.621 203.736 313.422 203.736 313.422 L 206.035 303.515 L 185.532 297.147 Z" fill="#eaeaf2" style=""/>
  <path d="M 241.293 288.741 L 233.82 288.741 C 233.775 288.702 233.733 288.658 233.697 288.613 L 233.82 288.032 L 234.778 285.74 L 241.201 288.032 L 241.293 288.741 Z" opacity="0.1" style=""/>
  <path d="M 243.707 276.761 C 243.707 276.761 237.223 281.756 233.82 276.761 C 233.82 276.761 230.754 285.209 233.82 288.04 L 243.017 288.04 C 243.017 288.04 247.837 280.34 243.707 276.761 Z" fill="#bc8487" style=""/>
  <path d="M 252.475 260.351 L 262.132 262.651 C 262.132 262.651 252.981 284.586 250.965 284.586 L 239.377 279.456 L 252.475 260.351 Z" opacity="0.1" style=""/>
  <path d="M 254.513 263.18 L 239.039 278.324 L 238.609 278.749 L 238.05 278.444 L 251.579 259.395 L 251.908 259.898 C 252.671 261.06 253.543 262.159 254.513 263.18 Z" opacity="0.1" style=""/>
  <path d="M 251.708 259.643 L 261.366 261.942 C 261.366 261.942 252.215 283.879 250.199 283.879 L 238.609 278.749 L 251.708 259.643 Z" fill="#eaeaf2" style=""/>
  <path d="M 220.729 257.916 L 212.359 260.351 C 212.359 260.351 220.598 283.348 222.897 284.586 L 237.843 279.456 L 220.729 257.916 Z" opacity="0.1" style=""/>
  <path d="M 239.039 278.324 L 238.609 278.749 C 238.609 278.749 218.49 267.957 220.023 264.95 C 220.79 263.407 221.242 260.195 221.48 257.428 L 221.48 256.996 L 239.039 278.324 Z" opacity="0.1" style=""/>
  <path d="M 221.495 257.209 L 213.125 259.643 C 213.125 259.643 221.365 282.64 223.663 283.879 L 238.609 278.749 L 221.495 257.209 Z" fill="#eaeaf2" style=""/>
  <path d="M 201.559 294.776 C 201.559 294.776 206.603 295.604 206.511 300.437 C 206.419 305.27 208.588 294.189 208.588 294.189 L 201.559 294.776 Z" opacity="0.1" style=""/>
  <path d="M 202.709 309.636 C 202.709 309.636 201.307 316.946 202.709 323.555 C 204.112 330.164 203.989 332.4 205.078 332.754 C 206.165 333.109 202.709 309.636 202.709 309.636 Z" opacity="0.1" style=""/>
  <path d="M 267.091 308.929 C 265.378 309.129 264.278 310.711 264.792 312.233 C 265.436 315.192 267.091 308.929 267.091 308.929 Z" opacity="0.1" style=""/>
  <path d="M 179.462 333.696 C 179.462 333.696 195.887 332.4 198.623 335.111 C 201.361 337.821 179.462 333.696 179.462 333.696 Z" opacity="0.1" style=""/>
  <path d="M 274.756 334.722 C 274.756 334.722 286.766 333.356 289.579 335.245" opacity="0.1" style=""/>
  <path d="M 279.615 336.526 C 279.615 336.526 286.766 336.76 288.429 337.587" opacity="0.1" style=""/>
  <path d="M 281.018 338.896 C 281.018 338.896 287.533 338.663 288.429 339.605" opacity="0.1" style=""/>
  <path d="M 189.143 372.155 C 189.143 372.155 194.723 374.836 194.155 377.575 C 193.588 380.314 189.143 372.155 189.143 372.155 Z" opacity="0.1" style=""/>
  <path d="M 184.314 373.457 C 184.314 373.457 192.83 383.654 191.672 387.015 C 190.515 390.376 184.314 373.457 184.314 373.457 Z" opacity="0.1" style=""/>
  <path d="M 275.592 375.148 C 275.592 375.148 271.376 378.354 271.491 381" opacity="0.1" style=""/>
  <path d="M 178.251 438.317 C 178.251 438.317 178.251 441.325 184.284 445.748" opacity="0.1" style=""/>
  <path d="M 284.72 431.242 C 284.72 431.242 284.076 437.497 278.205 440.738" opacity="0.1" style=""/>
  <g opacity="0.1" transform="matrix(0.766456, 0, 0, 0.707624, -150.634338, -88.627907)" style="">
    <path d="M568.83,464.81c0-.69-.12-1.4-.18-2.1a20.17,20.17,0,0,0,.14,4.58A18.64,18.64,0,0,0,568.83,464.81Z" transform="translate(-95.23 -30.18)"/>
    <path d="M567.24,492.75c.15-2.9-2.37-5.23-3.1-8a2.7,2.7,0,0,1-.08-.41,7.71,7.71,0,0,0,.08,3.41c.59,2.29,2.37,4.25,2.93,6.47C567.12,493.7,567.22,493.23,567.24,492.75Z" transform="translate(-95.23 -30.18)"/>
    <path d="M637.18,480.26a13.33,13.33,0,0,1-3.57,4.39c-2.33,2.15-5.22,4.46-8.31,3.76-4.59-1-6.17-8-10.85-8.48s-7.79,6-12.52,5.87c-2-.05-3.8-1.36-5.64-2.27-3.22-1.59-8.51-2.56-12-1.36-5.23,1.79-7,6.63-10.36,10.48a16.87,16.87,0,0,1-4.4,3.58,2.12,2.12,0,0,1-1.13.35,1.39,1.39,0,0,1-1.12-.9v.07a15.39,15.39,0,0,0-.19,2.24,1.65,1.65,0,0,0,1.31,1.59,2.12,2.12,0,0,0,1.13-.35,16.87,16.87,0,0,0,4.4-3.58c3.38-3.85,5.13-8.69,10.36-10.48,3.53-1.2,8.82-.23,12,1.36,1.84.91,3.6,2.22,5.64,2.27,4.73.12,7.82-6.39,12.52-5.87s6.26,7.44,10.85,8.48c3.09.7,6-1.61,8.31-3.76a13.33,13.33,0,0,0,3.57-4.39,8.44,8.44,0,0,0,.43-4.54A7.07,7.07,0,0,1,637.18,480.26Z" transform="translate(-95.23 -30.18)"/>
  </g>
  <path d="M 159.603 466.361 C 159.603 466.361 165.866 464.577 168.464 467.96" opacity="0.1" style=""/>
  <path d="M 304.67 467.068 C 304.67 467.068 294.301 466.509 294.707 469.099" opacity="0.1" style=""/>
  <ellipse cx="91.09" cy="810.68" rx="26.93" ry="4.55" fill="#38d39f" opacity="0.1" transform="matrix(1, 0, 0, 1, -269.816315, -192.634558)"/>
  <ellipse cx="195.26" cy="835.09" rx="26.93" ry="4.55" fill="#38d39f" opacity="0.1" transform="matrix(1, 0, 0, 1, -269.816315, -192.634558)"/>
  <path d="M291.88,753.45s5.5,7.19-2.53,18-14.65,20-12,26.77c0,0,12.12-20.15,22-20.43S302.73,765.57,291.88,753.45Z" transform="matrix(1, 0, 0, 1, -365.046319, -222.814559)" fill="#38d39f"/>
  <path d="M291.88,753.45a8.83,8.83,0,0,1,1.12,2.26c9.62,11.3,14.75,21.85,5.5,22.11-8.61.25-18.94,15.65-21.42,19.54.08.3.18.59.29.89,0,0,12.12-20.15,22-20.43S302.73,765.57,291.88,753.45Z" transform="matrix(1, 0, 0, 1, -365.046319, -222.814559)" opacity="0.1"/>
  <path d="M302.09,762.61c0,2.53-.28,4.58-.63,4.58s-.63-2.05-.63-4.58.35-1.34.7-1.34S302.09,760.08,302.09,762.61Z" transform="matrix(1, 0, 0, 1, -365.046319, -222.814559)" fill="#ffd037"/>
  <path d="M305.6,765.63c-2.22,1.21-4.16,1.94-4.32,1.63s1.49-1.54,3.71-2.75,1.35-.33,1.51,0S307.82,764.42,305.6,765.63Z" transform="matrix(1, 0, 0, 1, -365.046319, -222.814559)" fill="#ffd037"/>
  <path d="M262.87,753.45s-5.5,7.19,2.53,18,14.65,20,12,26.77c0,0-12.11-20.15-22-20.43S252,765.57,262.87,753.45Z" transform="matrix(1, 0, 0, 1, -365.046319, -222.814559)" fill="#38d39f"/>
  <path d="M262.87,753.45a9,9,0,0,0-1.13,2.26c-9.62,11.3-14.74,21.85-5.5,22.11,8.62.25,18.95,15.65,21.43,19.54a7.76,7.76,0,0,1-.3.89s-12.11-20.15-22-20.43S252,765.57,262.87,753.45Z" transform="matrix(1, 0, 0, 1, -365.046319, -222.814559)" opacity="0.1"/>
  <path d="M252.65,762.61c0,2.53.29,4.58.64,4.58s.63-2.05.63-4.58-.35-1.34-.7-1.34S252.65,760.08,252.65,762.61Z" transform="matrix(1, 0, 0, 1, -365.046319, -222.814559)" fill="#ffd037"/>
  <path d="M249.15,765.63c2.22,1.21,4.15,1.94,4.32,1.63s-1.5-1.54-3.72-2.75-1.34-.33-1.51,0S246.93,764.42,249.15,765.63Z" transform="matrix(1, 0, 0, 1, -365.046319, -222.814559)" fill="#ffd037"/>
  <path d="M254.4,797.31s15.36-.48,20-3.77,23.63-7.24,24.77-1.95,23.09,26.29,5.75,26.43-40.3-2.7-44.92-5.51S254.4,797.31,254.4,797.31Z" transform="matrix(1, 0, 0, 1, -365.046319, -222.814559)" fill="#a8a8a8"/>
  <path d="M305.22,816.18c-17.34.14-40.3-2.7-44.92-5.51-3.51-2.15-4.92-9.84-5.39-13.38l-.51,0s1,12.38,5.59,15.2,27.58,5.65,44.92,5.51c5,0,6.73-1.82,6.64-4.46C310.85,815.16,308.94,816.15,305.22,816.18Z" transform="matrix(1, 0, 0, 1, -365.046319, -222.814559)" opacity="0.2"/>
</svg>